inDegrees=no
num_controls=7
num_derivatives=13
num_iterations=190
num_multipliers=7
num_parameters=0
num_slacks=7
num_states=26
objective=5.677791
objective_accelerations=0.541154
objective_balance=0.016819
objective_effort=0.436250
objective_height=4.583223
objective_ligament=0.100345
solver_duration=1581.738105
status=Solve_Succeeded
success=true
DataType=double
version=3
OpenSimVersion=4.4-2022-07-23-0e9fedc
endheader
time	/jointset/ground_pelvis/pelvis_tilt/value	/jointset/ground_pelvis/pelvis_tx/value	/jointset/ground_pelvis/pelvis_ty/value	/jointset/hip_r/hip_flexion_r/value	/jointset/hip_r/hip_adduction_r/value	/jointset/hip_r/hip_rotation_r/value	/jointset/back/lumbar_extension/value	/jointset/patellofemoral_r/patellar_flexion_r/value	/jointset/knee_r/knee_flexion_r/value	/jointset/knee_r/knee_adduction_r/value	/jointset/knee_r/knee_rotation_r/value	/jointset/ankle_r/ankle_angle_r/value	/jointset/subtalar_r/subtalar_angle_r/value	/jointset/ground_pelvis/pelvis_tilt/speed	/jointset/ground_pelvis/pelvis_tx/speed	/jointset/ground_pelvis/pelvis_ty/speed	/jointset/hip_r/hip_flexion_r/speed	/jointset/hip_r/hip_adduction_r/speed	/jointset/hip_r/hip_rotation_r/speed	/jointset/back/lumbar_extension/speed	/jointset/patellofemoral_r/patellar_flexion_r/speed	/jointset/knee_r/knee_flexion_r/speed	/jointset/knee_r/knee_adduction_r/speed	/jointset/knee_r/knee_rotation_r/speed	/jointset/ankle_r/ankle_angle_r/speed	/jointset/subtalar_r/subtalar_angle_r/speed	/forceset/tau_hip_flexion_r	/forceset/tau_hip_adduction_r	/forceset/tau_hip_rotation_r	/forceset/tau_knee_flexion_r	/forceset/tau_ankle_angle_r	/forceset/tau_subtalar_angle_r	/forceset/tau_lumbar_extension	lambda_cid13_p0	lambda_cid14_p0	lambda_cid14_p1	lambda_cid14_p2	lambda_cid14_p3	lambda_cid14_p4	lambda_cid14_p5	/jointset/ground_pelvis/pelvis_tilt/accel	/jointset/ground_pelvis/pelvis_tx/accel	/jointset/ground_pelvis/pelvis_ty/accel	/jointset/hip_r/hip_flexion_r/accel	/jointset/hip_r/hip_adduction_r/accel	/jointset/hip_r/hip_rotation_r/accel	/jointset/back/lumbar_extension/accel	/jointset/patellofemoral_r/patellar_flexion_r/accel	/jointset/knee_r/knee_flexion_r/accel	/jointset/knee_r/knee_adduction_r/accel	/jointset/knee_r/knee_rotation_r/accel	/jointset/ankle_r/ankle_angle_r/accel	/jointset/subtalar_r/subtalar_angle_r/accel	gamma_cid13_p0	gamma_cid14_p0	gamma_cid14_p1	gamma_cid14_p2	gamma_cid14_p3	gamma_cid14_p4	gamma_cid14_p5
1.5	-0.06671223160527154	0.04743564292329683	0.8283608562330111	0.7473131918173542	-0.2521067689505281	-0.06485122203961723	-0.6191564634056149	0.9077916183228154	0.9077916183227728	0.06542629025375309	0.1741664551446955	0.3015685970329007	0.09504517011483324	0.420992438621473	0.201382722829037	0.4529174467705682	-1.848622376641584	0.04490675823646427	-0.4998109763869626	0.8012603931244597	-1.870320384803268	-1.870320384803319	0.08452169228974844	0.003553001468655312	-0.5181858587904105	-0.1011139387721443	-0.1483784480052569	-0.005508382421364221	0.03452995859398626	-0.2989312387900895	-0.005079405013998725	-0.01072870883865862	0.2054386845766253	-10.43284771567099	-44.23652941545732	-10.6606904900125	0.1291477866098343	-0.3678132003170988	-634.303763925777	64.03683708931028	0.02531313730514213	0.4628560170145192	-0.4318143224271657	-0.8569695199055288	0.1797346952675951	-0.06437966895395557	1.660152348670927	-1.357028931845101	-1.35702893184507	0.5956243108903239	-0.01581687668227279	-0.5811345285498571	0.1384911525100611	9.104210379142766e-08	2.107496578755867e-08	-1.166718754648137e-06	3.533446882426068e-07	1.075456537400551e-07	1.623396940729639e-07	-8.066659548197106e-07
1.51	-0.06250133762342444	0.04947238608251523	0.8328675148208474	0.7287861155796761	-0.2516493616300708	-0.06985241037455002	-0.6110622915344673	0.8890229940465961	0.8890229940465848	0.06630230097058958	0.1742022850329516	0.2963582300487247	0.0940400961402847	0.4211292344951852	0.2059397480038072	0.4483182166283969	-1.856541627032378	0.04655914156647462	-0.5003623788303458	0.8174577971412043	-1.883135119300396	-1.883135119300424	0.09071203214552445	0.003602560652654288	-0.523808447555004	-0.09990293146849702	-0.1415758836711404	-0.00655754018929252	0.03376769064173897	-0.295301011223764	-0.002863447663583448	-0.01142914142052555	0.1991408712561113	-11.42482674305946	-43.29163803307181	-10.71459625177105	0.04082480981696346	-0.5131516015968449	-629.9541940201655	63.53131466741531	-0.0007030932953425463	0.4482190217609133	-0.4883500532904847	-0.7217120274967571	0.1556480222794069	-0.04073084754711349	1.582106833603539	-1.203313308575343	-1.203313308572	0.6353332867339956	0.01384180910970021	-0.5409275362038419	0.1119826525128041	9.784846426288098e-08	3.349211422001176e-08	-1.09961075896804e-06	4.315767508939991e-07	9.40042994393783e-08	1.721213105669437e-07	-7.698052643392736e-07
1.52	-0.05829078886398139	0.05155391814429186	0.8373253065686261	0.7101873849923228	-0.2511758989022305	-0.07485715479702053	-0.6028096311420673	0.8701342989054208	0.8701342989054398	0.06724113397874718	0.1742383104116804	0.2910940158797448	0.09304704766541687	0.4209233941409155	0.2103405033406825	0.4431440787590737	-1.862953246576387	0.04811783971295181	-0.5005221938943938	0.8329580973750422	-1.894334557794674	-1.89433455779468	0.09708615055381058	0.003592099563401753	-0.5289552957511873	-0.09870883883602018	-0.1347733193370267	-0.007606697957222377	0.03300542268948774	-0.29167078365744	-0.0006474903131691214	-0.01212957400239515	0.1928430579355953	-12.4177044345487	-42.34863520893824	-10.76533458573127	-0.05199948341667614	-0.6655303105171246	-625.6330499294368	63.06910715828392	-0.0432141082912704	0.4316020494355136	-0.5467958678575552	-0.555443350548293	0.1609976585609635	0.0139378069131	1.520731592089609	-1.033969731275112	-1.03396973127491	0.6323800213923514	-0.02782093133257608	-0.4859864148677469	0.1351082182759664	1.057669735861249e-07	4.495763163305815e-08	-1.067040880731751e-06	5.078861176448772e-07	8.455657146801714e-08	1.841468908215273e-07	-7.591304467295925e-07
1.53	-0.0540840292518523	0.05367862800265288	0.8417285411122623	0.6915321062697104	-0.2506873842516915	-0.07986151472553676	-0.5944055757900414	0.8511417477511779	0.8511417477511978	0.06824472043595822	0.1742739209069623	0.2857807313458643	0.09206577179927483	0.42036881112456	0.2145700272651072	0.4374124602612621	-1.86784326649887	0.04956784740588185	-0.5002965205203056	0.847724053294078	-1.903896275100031	-1.903896275100037	0.1036490414207607	0.003522915446676369	-0.5336176054674374	-0.09754886870689465	-0.1279103964647483	-0.008726017323003411	0.03222909518163704	-0.2882500261048178	0.001708457735228016	-0.0129206131692828	0.1864993328777334	-13.40777303489916	-41.38101348656659	-10.85760187932279	-0.1307900989875476	-0.8099880409118735	-621.5149727649911	62.57470088426194	-0.07053323168278186	0.413926749768098	-0.5998590425783662	-0.4168896421197164	0.1344259388342131	0.03503447049487354	1.435189631399524	-0.8753869848614495	-0.8753869848616062	0.6707884004350846	0.002562553662284985	-0.4437220231766486	0.1059660189182573	1.148671410643962e-07	5.541204108798495e-08	-1.07116775227951e-06	5.821526200014587e-07	7.945832147155379e-08	1.985566825717525e-07	-7.762781190450893e-07
1.54	-0.04988460603656302	0.05584469293742259	0.8460717566305533	0.6728357056820675	-0.2501848848013877	-0.0848619874467447	-0.5858577284709077	0.8320619565729424	0.8320619565729633	0.06931444475805575	0.1743086455021782	0.2804233499601867	0.0910960005561616	0.4194561147732035	0.2186115186224172	0.4311402736900163	-1.871177619582208	0.0509147996658199	-0.49974475243269	0.8617164907966735	-1.911782562593206	-1.911782562593213	0.1103137235312604	0.003414919550142838	-0.5377746661106081	-0.09640791423027256	-0.1210474735924733	-0.009845336688784741	0.03145276767378963	-0.2848292685521973	0.004064405783624526	-0.01371165233617119	0.1801556078198689	-14.39168882359404	-40.41546209304601	-10.94652076208001	-0.2143540267664749	-0.9609408674341509	-617.4285917543369	62.12832154311668	-0.1148367752914696	0.3939955360125499	-0.6549094825443831	-0.244309982719193	0.1403865719625664	0.07915674961859998	1.366027908801594	-0.6988837688385567	-0.6988837688385552	0.6527382701022847	-0.0355832872942064	-0.3849366002518547	0.1313050877752795	1.235121495222536e-07	6.618584321007732e-08	-1.076463600919458e-06	6.543960176882943e-07	7.387544143364569e-08	2.158363713478172e-07	-7.963824930854913e-07
1.55	-0.04569608106830433	0.05805017783889138	0.8503496243287859	0.6541137214977407	-0.2496694824512409	-0.08985522918276885	-0.5771739897188441	0.8129117069519458	0.812911706951932	0.07045143518945682	0.1743420230781246	0.2750269237871181	0.09013747861566711	0.4181876190270337	0.2224481750803073	0.4243495860278135	-1.872952021007755	0.05214795078271595	-0.4988536465478977	0.8748888782009538	-1.9179780371749	-1.917978037174921	0.1170914132273937	0.003251342064250516	-0.5414223546361329	-0.09529796637261119	-0.114162624383051	-0.01105788647760746	0.03066783797751264	-0.2816073830766304	0.006497356201323608	-0.01457252113593809	0.1738041439558045	-15.36692762508999	-39.44794262195656	-11.0689811536624	-0.2885043777182131	-1.086064447555755	-613.6019410201378	61.67252537131003	-0.1420384723569742	0.3729205764959516	-0.7036508254556778	-0.1039162527759349	0.1121473768443325	0.1017595335635878	1.271486943975666	-0.5365078669718015	-0.5365078669738652	0.6912046170954014	-0.008012285210450313	-0.3414216934099943	0.1005349403849233	1.316327356305036e-07	7.732764123129522e-08	-1.08310631446997e-06	7.243084469512925e-07	6.773418330450779e-08	2.36422680610175e-07	-8.198935017219798e-07
1.56	-0.04152207755712399	0.06029291328010283	0.8545570846669167	0.6353820110930967	-0.2491422749908666	-0.09483802545481428	-0.5683627985351912	0.7937081768723043	0.7937081768722568	0.07165638657736208	0.1743735114180187	0.2695966733858528	0.08918999521487395	0.4165518233577771	0.2260616265709451	0.4170588016696969	-1.873122863645441	0.05327582171126052	-0.4976556596369439	0.8872069771146114	-1.922438654322073	-1.922438654322108	0.1239059148325886	0.003037072339409574	-0.5445395117499471	-0.09420020629001535	-0.1072777751736316	-0.01227043626642957	0.0298829082812465	-0.2783854976010651	0.00893030661902232	-0.01543338993570445	0.1674526800917376	-16.33142140443129	-38.48174686150269	-11.18790074068042	-0.3675292880205262	-1.219587969500538	-609.7970518416288	61.2673946764187	-0.1882967599088574	0.3493545425620772	-0.7549288217271474	0.07640177485300789	0.1193305342922729	0.140532954850931	1.195170210676999	-0.351912281934219	-0.351912281934234	0.6601006519145959	-0.04572173508393194	-0.278830317909778	0.1288675327621728	1.395055087409127e-07	8.80022144388503e-08	-1.096924201580594e-06	7.908968165896044e-07	6.245270396377531e-08	2.588390104847282e-07	-8.496526483743881e-07
1.57	-0.03736623283539461	0.06257061843198218	0.8586892254286828	0.6166565588742037	-0.2486043857416109	-0.09980731897942566	-0.5594328724810186	0.77446872802272	0.7744687280228356	0.07292974942126809	0.1744026350593784	0.264137898259819	0.08825333714859292	0.414554058804557	0.2294368805011187	0.4092930956279168	-1.871692257740247	0.05428232325553349	-0.4961610362865534	0.8986238197163089	-1.925150997341228	-1.925150997341188	0.1307626742805378	0.002784115968775977	-0.5471226697288244	-0.0931337894632739	-0.1003765865739306	-0.01357728274804436	0.0290916977258641	-0.2754292066076501	0.0114985949075904	-0.01638599315454256	0.1611138926041715	-17.28358236624829	-37.50002397270213	-11.3492536311561	-0.433721008471934	-1.342581513323552	-606.3159881315247	60.84434261956562	-0.2149679765673213	0.325243487456852	-0.798770200479525	0.2176999616262735	0.08839157358144252	0.1604265169011837	1.09177918437134	-0.1859078584569569	-0.1859078584457459	0.6977289709585164	-0.0154682561246044	-0.2340992039878242	0.09509807886608596	1.470685156040204e-07	9.809275662932688e-08	-1.119711055641356e-06	8.533301116970587e-07	5.824594810854958e-08	2.835428661245255e-07	-8.872219675466961e-07
1.58	-0.03323225609390641	0.06488080265700566	0.8627414333890155	0.5979536747070162	-0.2480570151550948	-0.1047603663721796	-0.5503934104209384	0.7552111532336335	0.7552111532339139	0.07427153293559657	0.1744291520034181	0.2586560834207743	0.0873272571148265	0.4121782273097898	0.2325574411997652	0.401072241383083	-1.868609253304108	0.0551720891632721	-0.4944064332654404	0.9091141782962158	-1.926063842222419	-1.926063842222305	0.1375900489174246	0.002515732875280905	-0.5491474543521467	-0.0920845997870942	-0.09347539797423267	-0.01488412922965935	0.02830048717048795	-0.2724729156142364	0.01406688319615796	-0.01733859637338131	0.1547751051166029	-18.22232796803178	-36.51842940889034	-11.50666876123603	-0.5050649495445535	-1.476977176399981	-602.8406165727287	60.47410068506431	-0.2639101482183448	0.2984158962566435	-0.8459584623379053	0.4068814810417765	0.09598340698539903	0.1925288889954298	1.009873406318867	0.007987345658319725	0.007987345658319104	0.6542236897021441	-0.04880707965622957	-0.1671556467987919	0.1254221026498202	1.543495897386623e-07	1.076434817159053e-07	-1.147834123382689e-06	9.118620288588496e-07	5.471985080816932e-08	3.097602934548751e-07	-9.28235468775689e-07
